HIERARCHY
ROOT Hips
{
  OFFSET 0 0 0
  CHANNELS 6 Xposition Yposition Zposition Zrotation Yrotation Xrotation
  JOINT LeftThigh
  {
    OFFSET 8.409438 0 -5.917753
    CHANNELS 3 Zrotation Yrotation Xrotation
    JOINT LeftLeg
    {
      OFFSET 0 0 -42.358652
      CHANNELS 3 Zrotation Yrotation Xrotation
      JOINT LeftFoot
      {
        OFFSET 0 0 -39.357303
        CHANNELS 3 Zrotation Yrotation Xrotation
      }
    }
  }
  JOINT RightThigh
  {
    OFFSET -8.409438 0 -5.917753
    CHANNELS 3 Zrotation Yrotation Xrotation
    JOINT RightLeg
    {
      OFFSET 0 0 -42.358652
      CHANNELS 3 Zrotation Yrotation Xrotation
      JOINT RightFoot
      {
        OFFSET 0 0 -39.357303
        CHANNELS 3 Zrotation Yrotation Xrotation
      }
    }
  }
  JOINT SpineLow
  {
    OFFSET 0 0 4.719101
    CHANNELS 3 Zrotation Yrotation Xrotation
    JOINT SpineMid
    {
      OFFSET 0 0 12.899191
      CHANNELS 3 Zrotation Yrotation Xrotation
      JOINT Chest
      {
        OFFSET 0 0 12.899191
        CHANNELS 3 Zrotation Yrotation Xrotation
        JOINT LeftShoulder
        {
          OFFSET 7.550562 1.41573 9.438202
          CHANNELS 3 Zrotation Yrotation Xrotation
          JOINT LeftArm
          {
            OFFSET 9.155056 0 4.247191
            CHANNELS 3 Zrotation Yrotation Xrotation
            JOINT LeftForearm
            {
              OFFSET 0 0 25.771955
              CHANNELS 3 Zrotation Yrotation Xrotation
              JOINT LeftHand
              {
                OFFSET 0 0 25.197169
                CHANNELS 3 Zrotation Yrotation Xrotation
              }
            }
          }
        }
        JOINT RightShoulder
        {
          OFFSET -7.550562 1.41573 9.438202
          CHANNELS 3 Zrotation Yrotation Xrotation
          JOINT RightArm
          {
            OFFSET -9.155056 0 4.247191
            CHANNELS 3 Zrotation Yrotation Xrotation
            JOINT RightForearm
            {
              OFFSET 0 0 -25.771955
              CHANNELS 3 Zrotation Yrotation Xrotation
              JOINT RightHand
              {
                OFFSET 0 0 -25.197169
                CHANNELS 3 Zrotation Yrotation Xrotation
              }
            }
          }
        }
        JOINT Neck
        {
          OFFSET 0 0 15.101124
          CHANNELS 3 Zrotation Yrotation Xrotation
          JOINT Head
          {
            OFFSET 0 0 11.325843
            CHANNELS 3 Zrotation Yrotation Xrotation
            End Site
            {
              OFFSET 0 0 14.157303
            }
          }
        }
      }
    }
  }
}
MOTION
Frames: 10
Frame Time: 0.0
0.0  93.25843  0.0  -6.678398  -56.207488  -94.95426  34.586098  -32.00347  -37.426046  1.079785  0.057808  36.533406  9.752847  0.983356  8.562219  -3.476356  10.570491  -4.798091  5.363083  9.717675  39.635125  -5.66407  2.421834  -8.708419  2.947355  -0.568431  1.195174  8.027555  -1.696173  3.192737  8.027555  -1.696173  3.192737  -13.347125  9.933711  3.03735  -139.722285  60.516515  -90.689346  -23.768262  0.369108  94.99335  87.081418  2.063397  1.256702  -7.906582  -13.243657  18.219453  78.101601  37.593233  33.510924  2.041414  -9.941706  -120.45222  73.817789  -0.309479  -5.364317  -9.382518  1.97934  3.028458  -7.046202  1.438455  2.302162  
0.0  93.25843  0.0  -5.739547  -56.734482  -95.597033  35.245866  -31.682656  -37.059961  1.543478  0.08284  36.100755  9.536448  0.927681  8.576909  -2.904185  11.013651  -4.995198  5.875619  9.488373  39.508074  -5.587405  2.653809  -8.657504  2.602346  -0.652588  1.008046  7.086394  -1.889453  2.682216  7.086394  -1.889453  2.682216  -10.582699  11.364185  4.215877  -141.030233  59.910532  -95.018655  -22.347171  1.111433  97.311437  87.104061  2.403669  0.903223  -6.181171  -12.209367  19.128369  76.748732  37.5579  33.613463  3.845747  -10.868684  -120.096754  73.849897  0.180909  -4.476175  -7.929843  2.923973  3.782202  -5.964466  2.144439  2.874579  
0.0  93.25843  0.0  -5.326351  -56.403152  -95.819062  35.0449  -31.637795  -36.862565  2.055059  0.189078  35.790611  9.36124  0.889964  8.5954  -3.040533  11.337444  -4.938093  5.851629  9.329265  39.191878  -5.754982  2.684318  -8.663262  2.50054  -0.684547  0.872913  6.811069  -1.958768  2.312968  6.811069  -1.958768  2.312968  -10.170104  11.81502  4.888642  -143.990507  59.25666  -98.521232  -21.115052  0.434317  97.445582  87.026372  2.736727  0.254914  -6.421675  -12.151345  19.605424  75.872692  37.518184  34.027987  5.180498  -11.619083  -119.835748  74.256501  0.723905  -3.596159  -7.823307  3.274447  4.194103  -5.888698  2.402761  3.187296  
0.0  93.25843  0.0  -4.933048  -56.005892  -95.98533  34.440604  -31.618077  -36.859432  2.79301  0.210415  35.820592  9.283163  0.882144  8.580935  -2.928034  11.691927  -4.624523  5.3198  9.252453  38.574863  -5.87905  2.78854  -8.729322  2.422293  -0.733382  0.754787  6.599456  -2.077656  1.987935  6.599456  -2.077656  1.987936  -9.564872  12.5209  5.418168  -147.74497  58.913385  -102.468  -20.268829  0.014767  97.431916  77.636922  -9.010566  7.519975  -6.674665  -11.92654  20.208692  75.334125  37.601927  34.395711  5.527537  -11.602495  -119.715585  74.69605  1.074237  -2.389957  -7.833485  3.573936  4.395939  -5.899298  2.624796  3.342398  
0.0  93.25843  0.0  -4.692422  -55.464108  -96.049442  34.022931  -31.714357  -36.854047  3.352341  0.398668  35.73316  9.215181  0.942711  8.565626  -2.940713  12.029294  -4.166177  4.770529  9.16607  37.779759  -6.163275  2.817217  -8.735757  2.370427  -0.800949  0.631334  6.460192  -2.248586  1.64589  6.460192  -2.248587  1.64589  -9.299773  13.330565  6.060312  -152.196152  58.60214  -106.852443  -19.831583  -0.33061  97.063183  78.074269  -8.829425  7.087951  -6.84112  -11.563584  21.099987  74.617337  37.78185  34.471201  4.117254  -10.322382  -119.147424  74.598461  1.412746  -1.081363  -7.992166  3.822412  4.522255  -6.020603  2.808444  3.441182  
0.0  93.25843  0.0  -4.461888  -54.870552  -96.188957  33.144905  -31.924132  -36.880361  4.098641  0.597009  35.852439  9.340399  1.015435  8.611946  -3.168984  12.415534  -3.644683  4.240498  8.986061  36.866529  -6.590001  2.652475  -8.60708  2.12287  -0.89967  0.552218  5.784304  -2.505302  1.429767  5.784304  -2.505302  1.429767  -7.63024  14.372501  6.693182  -156.986549  58.059238  -111.752035  -19.448474  -0.332149  96.849755  78.559548  -8.691797  6.629593  -5.321896  -10.864773  21.96874  73.715711  37.894701  34.347222  1.74917  -8.211857  -118.571647  74.39611  1.417736  0.692606  -7.578014  4.129247  4.472418  -5.711667  3.042253  3.40476  
0.0  93.25843  0.0  -4.359829  -54.206797  -96.273302  32.509649  -32.174286  -36.856947  4.660788  0.859134  35.910846  9.412724  1.144715  8.633345  -3.688737  12.712996  -3.17131  4.383151  8.75807  36.006532  -6.848339  2.673925  -8.478587  2.087005  -0.923633  0.550705  5.685875  -2.56987  1.424973  5.685875  -2.56987  1.424973  -7.368819  14.694365  6.893548  -162.086817  57.288692  -116.714342  -19.159698  -0.490138  96.356294  79.099446  -8.570141  6.141322  -4.852114  -10.641461  22.343317  72.93183  37.890548  34.12054  -1.167982  -5.737904  -117.932266  73.9294  1.343103  2.626161  -7.809628  4.097277  4.185544  -5.883145  3.020249  3.190873  
0.0  93.25843  0.0  -4.217288  -53.866877  -96.354424  32.212383  -32.338236  -36.896211  5.166122  1.075562  36.02748  9.464947  1.288201  8.714616  -4.007047  12.982546  -2.819477  4.645929  8.516069  35.157619  -6.968472  2.699276  -8.257905  2.111652  -0.957791  0.609089  5.75031  -2.668723  1.580592  5.75031  -2.668723  1.580592  -7.302414  15.064832  6.655953  -165.951449  56.205563  -122.182182  -18.868169  -1.073128  95.21263  78.540834  -10.102699  6.340373  -4.311008  -10.305593  22.200559  72.503684  37.689047  33.996917  -4.305006  -2.272329  -117.722971  72.407756  0.779574  5.21362  -8.112085  4.096494  3.682242  -6.106443  3.024278  2.815551  
0.0  93.25843  0.0  -4.202905  -53.21975  -96.19809  31.877833  -32.308148  -37.123772  5.392626  1.377793  36.108652  9.625727  1.394928  8.782214  -4.565909  13.226662  -2.630962  4.898409  8.290777  34.387334  -7.248868  2.724376  -8.050504  2.076532  -1.023308  0.65434  5.651038  -2.850692  1.700164  5.651038  -2.850692  1.700164  -7.054753  15.647496  6.412196  -170.613545  55.28518  -126.800705  -18.535563  -1.799107  94.417422  79.272138  -9.972061  5.940068  -3.386616  -9.748258  21.976125  72.041085  37.430027  33.769422  -7.644161  0.435316  -116.910328  71.499578  0.582268  7.017621  -8.294921  4.248733  3.190838  -6.240749  3.144051  2.450329  
0.0  93.25843  0.0  -3.919988  -53.083802  -96.255223  32.172302  -32.020091  -37.337883  5.507631  1.631156  36.231915  9.810892  1.461575  8.838731  -4.441374  13.590305  -2.393816  4.734675  8.150999  33.494499  -7.465858  2.655604  -7.727756  2.141895  -1.059226  0.651762  5.829167  -2.950166  1.687141  5.829167  -2.950166  1.687141  -6.804866  16.175218  6.496101  -174.729811  54.307378  -131.625176  -17.990128  -2.537894  94.027344  80.090573  -9.806405  5.665924  -3.89697  -9.580938  21.600332  73.534643  36.774207  34.714826  -10.281068  2.642683  -116.210622  71.650444  0.11791  9.117124  -8.602347  4.381354  2.933538  -6.469848  3.245596  2.261393  
